<?xml version="1.0" standalone="no"?>
<!DOCTYPE svg PUBLIC "-//W3C//DTD SVG 20010904//EN"
 "http://www.w3.org/TR/2001/REC-SVG-20010904/DTD/svg10.dtd">
<svg version="1.0" xmlns="http://www.w3.org/2000/svg"
 width="100px" height="100px" viewBox="0 0 300 300"
 preserveAspectRatio="xMidYMid meet">
<g transform="translate(0,300) scale(0.1,-0.1)"
fill="#4212d2" stroke="none">
<path d="M1365 2990 c-483 -47 -899 -309 -1153 -728 -86 -141 -153 -321 -188
-507 -25 -131 -23 -396 5 -532 62 -312 191 -554 415 -779 294 -293 642 -438
1056 -437 251 0 461 49 673 157 424 215 713 604 803 1081 24 131 22 396 -5
532 -123 619 -607 1095 -1219 1197 -113 19 -286 26 -387 16z m1414 -975 c-5
-4 -126 -47 -439 -154 -378 -129 -1413 -482 -1550 -529 -80 -28 -157 -55 -171
-60 -24 -9 -39 -2 -155 73 -71 46 -191 123 -266 172 -76 48 -138 91 -138 94 0
3 53 13 118 23 147 21 1026 152 1392 206 151 23 365 55 475 71 483 71 554 82
630 94 94 15 110 17 104 10z m55 -7 c-4 -7 -63 -78 -130 -158 -67 -80 -258
-307 -424 -505 -166 -198 -343 -409 -393 -469 -225 -268 -289 -341 -300 -340
-7 1 -76 48 -153 105 -316 233 -585 429 -691 504 -62 44 -112 82 -112 85 0 3
192 73 427 157 1006 358 1428 509 1592 568 193 70 194 70 184 53z m-2214 -796
c0 -19 3 -23 9 -13 7 11 59 -23 230 -148 122 -90 221 -164 221 -165 0 -7 -371
-248 -375 -244 -3 2 -11 54 -17 114 -9 80 -14 100 -18 74 -5 -30 -7 -23 -17
45 -60 399 -58 379 -43 370 6 -3 10 -18 10 -33z"/>
<path d="M632 1140 c0 -19 2 -27 5 -17 2 9 2 25 0 35 -3 9 -5 1 -5 -18z"/>
<path d="M642 1070 c0 -19 2 -27 5 -17 2 9 2 25 0 35 -3 9 -5 1 -5 -18z"/>
<path d="M652 990 c0 -19 2 -27 5 -17 2 9 2 25 0 35 -3 9 -5 1 -5 -18z"/>
<path d="M662 910 c0 -19 2 -27 5 -17 2 9 2 25 0 35 -3 9 -5 1 -5 -18z"/>
</g>
</svg>
